<svg width="822" height="571" viewBox="0 0 822 571" fill="none" xmlns="http://www.w3.org/2000/svg">
<path d="M82.35 415L95.85 165.7H96.75L135.45 379.9C139.95 404.2 155.25 420.4 174.6 420.4C193.95 420.4 209.25 404.2 213.75 379.9L252.45 165.7V158.5H253.35L267.3 415H342L316.8 163C312.3 117.1 301.95 94.6 255.15 94.6C224.55 94.6 204.75 112.6 198.9 152.2L175.95 303.85H173.7L150.75 152.2C144.9 112.6 125.1 94.6 94.5 94.6C47.7 94.6 37.35 117.1 32.85 163L7.65 415H82.35Z" fill="black"/>
<path d="M359.3 415V204.4C359.3 181 371.9 165.7 391.25 165.7C410.6 165.7 423.2 181 423.2 204.4V234.1H374.15V305.2H423.2V415H501.5V208C501.5 140.5 456.95 94.6 391.25 94.6C325.55 94.6 281 140.5 281 208V415H359.3Z" fill="black"/>
<path d="M4.45312 504V461.051H13.0078L23.1738 491.461C24.1113 494.293 24.7949 496.412 25.2246 497.818C25.7129 496.256 26.4746 493.961 27.5098 490.934L37.793 461.051H45.4395V504H39.9609V468.053L27.4805 504H22.3535L9.93164 467.438V504H4.45312ZM109.193 461.051H114.877V485.865C114.877 490.182 114.388 493.609 113.412 496.148C112.435 498.688 110.668 500.758 108.109 502.359C105.57 503.941 102.23 504.732 98.0895 504.732C94.066 504.732 90.775 504.039 88.2164 502.652C85.6578 501.266 83.8316 499.264 82.7379 496.646C81.6441 494.01 81.0973 490.416 81.0973 485.865V461.051H86.7809V485.836C86.7809 489.566 87.1227 492.32 87.8063 494.098C88.5094 495.855 89.7008 497.213 91.3805 498.17C93.0797 499.127 95.15 499.605 97.5914 499.605C101.771 499.605 104.75 498.658 106.527 496.764C108.304 494.869 109.193 491.227 109.193 485.836V461.051ZM148.835 490.201L154.196 489.732C154.45 491.881 155.036 493.648 155.954 495.035C156.892 496.402 158.337 497.516 160.29 498.375C162.243 499.215 164.441 499.635 166.882 499.635C169.05 499.635 170.964 499.312 172.624 498.668C174.284 498.023 175.515 497.145 176.316 496.031C177.136 494.898 177.546 493.668 177.546 492.34C177.546 490.992 177.155 489.82 176.374 488.824C175.593 487.809 174.304 486.959 172.507 486.275C171.355 485.826 168.806 485.133 164.861 484.195C160.915 483.238 158.152 482.34 156.57 481.5C154.519 480.426 152.986 479.098 151.97 477.516C150.974 475.914 150.476 474.127 150.476 472.154C150.476 469.986 151.091 467.965 152.321 466.09C153.552 464.195 155.349 462.76 157.712 461.783C160.075 460.807 162.702 460.318 165.593 460.318C168.777 460.318 171.579 460.836 174.001 461.871C176.443 462.887 178.318 464.391 179.626 466.383C180.935 468.375 181.638 470.631 181.736 473.15L176.286 473.561C175.993 470.846 174.997 468.795 173.298 467.408C171.618 466.021 169.128 465.328 165.827 465.328C162.39 465.328 159.88 465.963 158.298 467.232C156.736 468.482 155.954 469.996 155.954 471.773C155.954 473.316 156.511 474.586 157.624 475.582C158.718 476.578 161.57 477.604 166.179 478.658C170.808 479.693 173.982 480.602 175.7 481.383C178.2 482.535 180.046 484 181.238 485.777C182.429 487.535 183.025 489.566 183.025 491.871C183.025 494.156 182.37 496.314 181.062 498.346C179.753 500.357 177.868 501.93 175.407 503.062C172.966 504.176 170.212 504.732 167.146 504.732C163.259 504.732 159.997 504.166 157.361 503.033C154.743 501.9 152.683 500.201 151.179 497.936C149.695 495.65 148.913 493.072 148.835 490.201ZM218.155 504V461.051H223.839V504H218.155ZM290.932 488.941L296.616 490.377C295.424 495.045 293.276 498.609 290.17 501.07C287.084 503.512 283.305 504.732 278.832 504.732C274.204 504.732 270.434 503.795 267.524 501.92C264.633 500.025 262.426 497.291 260.903 493.717C259.399 490.143 258.647 486.305 258.647 482.203C258.647 477.73 259.496 473.834 261.196 470.514C262.914 467.174 265.346 464.645 268.491 462.926C271.655 461.188 275.131 460.318 278.92 460.318C283.217 460.318 286.83 461.412 289.76 463.6C292.69 465.787 294.731 468.863 295.883 472.828L290.288 474.146C289.291 471.021 287.846 468.746 285.952 467.32C284.057 465.895 281.674 465.182 278.803 465.182C275.502 465.182 272.739 465.973 270.512 467.555C268.305 469.137 266.752 471.266 265.854 473.941C264.955 476.598 264.506 479.342 264.506 482.174C264.506 485.826 265.034 489.02 266.088 491.754C267.163 494.469 268.823 496.5 271.069 497.848C273.315 499.195 275.746 499.869 278.364 499.869C281.547 499.869 284.243 498.951 286.45 497.115C288.657 495.279 290.151 492.555 290.932 488.941ZM371.212 490.201L376.574 489.732C376.828 491.881 377.414 493.648 378.332 495.035C379.269 496.402 380.714 497.516 382.668 498.375C384.621 499.215 386.818 499.635 389.259 499.635C391.427 499.635 393.341 499.312 395.002 498.668C396.662 498.023 397.892 497.145 398.693 496.031C399.513 494.898 399.923 493.668 399.923 492.34C399.923 490.992 399.533 489.82 398.752 488.824C397.97 487.809 396.681 486.959 394.884 486.275C393.732 485.826 391.183 485.133 387.238 484.195C383.293 483.238 380.529 482.34 378.947 481.5C376.896 480.426 375.363 479.098 374.347 477.516C373.351 475.914 372.853 474.127 372.853 472.154C372.853 469.986 373.468 467.965 374.699 466.09C375.929 464.195 377.726 462.76 380.089 461.783C382.453 460.807 385.08 460.318 387.97 460.318C391.154 460.318 393.957 460.836 396.379 461.871C398.82 462.887 400.695 464.391 402.004 466.383C403.312 468.375 404.015 470.631 404.113 473.15L398.664 473.561C398.371 470.846 397.375 468.795 395.675 467.408C393.996 466.021 391.505 465.328 388.205 465.328C384.767 465.328 382.257 465.963 380.675 467.232C379.113 468.482 378.332 469.996 378.332 471.773C378.332 473.316 378.888 474.586 380.002 475.582C381.095 476.578 383.947 477.604 388.556 478.658C393.185 479.693 396.359 480.602 398.078 481.383C400.578 482.535 402.423 484 403.615 485.777C404.806 487.535 405.402 489.566 405.402 491.871C405.402 494.156 404.748 496.314 403.439 498.346C402.13 500.357 400.246 501.93 397.785 503.062C395.343 504.176 392.589 504.732 389.523 504.732C385.636 504.732 382.375 504.166 379.738 503.033C377.121 501.9 375.06 500.201 373.556 497.936C372.072 495.65 371.291 493.072 371.212 490.201ZM470.21 488.941L475.894 490.377C474.702 495.045 472.554 498.609 469.448 501.07C466.362 503.512 462.583 504.732 458.111 504.732C453.482 504.732 449.712 503.795 446.802 501.92C443.911 500.025 441.704 497.291 440.181 493.717C438.677 490.143 437.925 486.305 437.925 482.203C437.925 477.73 438.775 473.834 440.474 470.514C442.193 467.174 444.624 464.645 447.769 462.926C450.933 461.188 454.409 460.318 458.198 460.318C462.495 460.318 466.109 461.412 469.038 463.6C471.968 465.787 474.009 468.863 475.161 472.828L469.566 474.146C468.57 471.021 467.124 468.746 465.23 467.32C463.335 465.895 460.952 465.182 458.081 465.182C454.78 465.182 452.017 465.973 449.79 467.555C447.583 469.137 446.03 471.266 445.132 473.941C444.234 476.598 443.784 479.342 443.784 482.174C443.784 485.826 444.312 489.02 445.366 491.754C446.441 494.469 448.101 496.5 450.347 497.848C452.593 499.195 455.025 499.869 457.642 499.869C460.825 499.869 463.521 498.951 465.728 497.115C467.935 495.279 469.429 492.555 470.21 488.941ZM509.501 504V461.051H515.184V478.688H537.509V461.051H543.192V504H537.509V483.756H515.184V504H509.501ZM577.356 483.082C577.356 475.953 579.27 470.377 583.098 466.354C586.926 462.311 591.868 460.289 597.922 460.289C601.887 460.289 605.461 461.236 608.645 463.131C611.828 465.025 614.25 467.672 615.911 471.07C617.59 474.449 618.43 478.287 618.43 482.584C618.43 486.939 617.551 490.836 615.793 494.273C614.036 497.711 611.545 500.318 608.323 502.096C605.1 503.854 601.623 504.732 597.893 504.732C593.85 504.732 590.237 503.756 587.053 501.803C583.87 499.85 581.457 497.184 579.817 493.805C578.176 490.426 577.356 486.852 577.356 483.082ZM583.215 483.17C583.215 488.346 584.602 492.428 587.375 495.416C590.168 498.385 593.664 499.869 597.864 499.869C602.141 499.869 605.657 498.365 608.411 495.357C611.184 492.35 612.571 488.082 612.571 482.555C612.571 479.059 611.975 476.012 610.784 473.414C609.612 470.797 607.883 468.775 605.598 467.35C603.332 465.904 600.784 465.182 597.952 465.182C593.928 465.182 590.461 466.568 587.551 469.342C584.661 472.096 583.215 476.705 583.215 483.17ZM650.455 483.082C650.455 475.953 652.369 470.377 656.197 466.354C660.025 462.311 664.967 460.289 671.021 460.289C674.986 460.289 678.561 461.236 681.744 463.131C684.928 465.025 687.35 467.672 689.01 471.07C690.689 474.449 691.529 478.287 691.529 482.584C691.529 486.939 690.65 490.836 688.893 494.273C687.135 497.711 684.645 500.318 681.422 502.096C678.199 503.854 674.723 504.732 670.992 504.732C666.949 504.732 663.336 503.756 660.152 501.803C656.969 499.85 654.557 497.184 652.916 493.805C651.275 490.426 650.455 486.852 650.455 483.082ZM656.314 483.17C656.314 488.346 657.701 492.428 660.475 495.416C663.268 498.385 666.764 499.869 670.963 499.869C675.24 499.869 678.756 498.365 681.51 495.357C684.283 492.35 685.67 488.082 685.67 482.555C685.67 479.059 685.074 476.012 683.883 473.414C682.711 470.797 680.982 468.775 678.697 467.35C676.432 465.904 673.883 465.182 671.051 465.182C667.027 465.182 663.561 466.568 660.65 469.342C657.76 472.096 656.314 476.705 656.314 483.17ZM725.048 504V461.051H730.732V498.932H751.884V504H725.048Z" fill="#931D7D"/>
<path d="M133.358 564V542.525H142.88C144.794 542.525 146.249 542.721 147.245 543.111C148.241 543.492 149.037 544.171 149.633 545.147C150.229 546.124 150.526 547.203 150.526 548.385C150.526 549.908 150.033 551.192 149.047 552.237C148.061 553.282 146.537 553.946 144.477 554.229C145.229 554.591 145.8 554.947 146.19 555.299C147.021 556.061 147.807 557.013 148.549 558.155L152.284 564H148.71L145.868 559.532C145.038 558.243 144.354 557.257 143.817 556.573C143.28 555.89 142.797 555.411 142.367 555.138C141.947 554.864 141.518 554.674 141.078 554.566C140.756 554.498 140.229 554.464 139.496 554.464H136.2V564H133.358ZM136.2 552.003H142.309C143.607 552.003 144.623 551.871 145.355 551.607C146.088 551.334 146.645 550.904 147.025 550.318C147.406 549.723 147.597 549.078 147.597 548.385C147.597 547.369 147.226 546.534 146.483 545.88C145.751 545.226 144.589 544.898 142.997 544.898H136.2V552.003ZM172.609 562.081C171.632 562.911 170.69 563.497 169.781 563.839C168.883 564.181 167.916 564.352 166.881 564.352C165.172 564.352 163.859 563.937 162.941 563.106C162.023 562.267 161.564 561.197 161.564 559.898C161.564 559.137 161.735 558.443 162.076 557.818C162.428 557.184 162.882 556.676 163.439 556.295C164.005 555.914 164.64 555.626 165.343 555.431C165.861 555.294 166.642 555.162 167.687 555.035C169.816 554.781 171.383 554.479 172.389 554.127C172.399 553.766 172.404 553.536 172.404 553.438C172.404 552.364 172.154 551.607 171.656 551.168C170.983 550.572 169.982 550.274 168.654 550.274C167.413 550.274 166.495 550.494 165.9 550.934C165.314 551.363 164.879 552.13 164.596 553.233L162.018 552.882C162.252 551.778 162.638 550.89 163.175 550.216C163.712 549.532 164.488 549.01 165.504 548.648C166.52 548.277 167.696 548.092 169.034 548.092C170.362 548.092 171.442 548.248 172.272 548.561C173.102 548.873 173.712 549.269 174.103 549.747C174.493 550.216 174.767 550.812 174.923 551.534C175.011 551.983 175.055 552.794 175.055 553.966V557.481C175.055 559.933 175.109 561.485 175.216 562.14C175.333 562.784 175.558 563.404 175.89 564H173.136C172.862 563.453 172.687 562.813 172.609 562.081ZM172.389 556.192C171.432 556.583 169.996 556.915 168.082 557.188C166.998 557.345 166.232 557.521 165.782 557.716C165.333 557.911 164.987 558.199 164.742 558.58C164.498 558.951 164.376 559.366 164.376 559.825C164.376 560.528 164.64 561.114 165.167 561.583C165.704 562.052 166.486 562.286 167.511 562.286C168.527 562.286 169.43 562.066 170.221 561.627C171.012 561.178 171.593 560.567 171.964 559.796C172.247 559.2 172.389 558.321 172.389 557.159V556.192ZM186.971 545.558V542.525H189.608V545.558H186.971ZM186.971 564V548.443H189.608V564H186.971ZM200.381 559.356L202.989 558.946C203.135 559.991 203.541 560.792 204.205 561.349C204.879 561.905 205.816 562.184 207.017 562.184C208.228 562.184 209.127 561.939 209.713 561.451C210.298 560.953 210.591 560.372 210.591 559.708C210.591 559.112 210.333 558.644 209.815 558.302C209.454 558.067 208.555 557.77 207.12 557.408C205.186 556.92 203.843 556.5 203.091 556.148C202.349 555.787 201.783 555.294 201.392 554.669C201.011 554.034 200.821 553.336 200.821 552.574C200.821 551.881 200.977 551.241 201.29 550.655C201.612 550.06 202.046 549.566 202.593 549.176C203.004 548.873 203.56 548.619 204.263 548.414C204.976 548.199 205.738 548.092 206.548 548.092C207.769 548.092 208.838 548.268 209.756 548.619C210.684 548.971 211.368 549.449 211.807 550.055C212.247 550.65 212.549 551.451 212.715 552.457L210.137 552.809C210.02 552.008 209.678 551.383 209.112 550.934C208.555 550.484 207.764 550.26 206.739 550.26C205.528 550.26 204.664 550.46 204.146 550.86C203.629 551.261 203.37 551.729 203.37 552.267C203.37 552.608 203.477 552.916 203.692 553.189C203.907 553.473 204.244 553.707 204.703 553.893C204.966 553.99 205.743 554.215 207.032 554.566C208.897 555.064 210.196 555.475 210.928 555.797C211.671 556.109 212.252 556.568 212.671 557.174C213.091 557.779 213.301 558.531 213.301 559.43C213.301 560.309 213.043 561.139 212.525 561.92C212.017 562.691 211.28 563.292 210.313 563.722C209.346 564.142 208.253 564.352 207.032 564.352C205.01 564.352 203.467 563.932 202.403 563.092C201.348 562.252 200.674 561.007 200.381 559.356ZM224.251 545.558V542.525H226.887V545.558H224.251ZM224.251 564V548.443H226.887V564H224.251ZM238.716 564V548.443H241.089V550.655C242.231 548.946 243.882 548.092 246.04 548.092C246.978 548.092 247.837 548.263 248.618 548.604C249.409 548.937 250 549.376 250.391 549.923C250.781 550.47 251.055 551.119 251.211 551.871C251.309 552.359 251.357 553.214 251.357 554.435V564H248.721V554.537C248.721 553.463 248.618 552.662 248.413 552.135C248.208 551.598 247.842 551.173 247.314 550.86C246.797 550.538 246.187 550.377 245.483 550.377C244.36 550.377 243.389 550.733 242.568 551.446C241.758 552.159 241.353 553.512 241.353 555.504V564H238.716ZM262.732 565.289L265.295 565.67C265.403 566.461 265.7 567.037 266.189 567.398C266.843 567.887 267.737 568.131 268.869 568.131C270.09 568.131 271.032 567.887 271.696 567.398C272.361 566.91 272.81 566.227 273.044 565.348C273.181 564.811 273.244 563.683 273.235 561.964C272.082 563.321 270.647 564 268.928 564C266.789 564 265.134 563.229 263.962 561.686C262.79 560.143 262.204 558.292 262.204 556.134C262.204 554.649 262.473 553.282 263.01 552.032C263.547 550.772 264.323 549.801 265.339 549.117C266.364 548.434 267.566 548.092 268.943 548.092C270.779 548.092 272.292 548.834 273.484 550.318V548.443H275.915V561.891C275.915 564.312 275.666 566.026 275.168 567.032C274.68 568.048 273.899 568.849 272.824 569.435C271.76 570.021 270.446 570.313 268.884 570.313C267.029 570.313 265.529 569.894 264.387 569.054C263.244 568.224 262.693 566.969 262.732 565.289ZM264.914 555.943C264.914 557.984 265.32 559.474 266.13 560.411C266.941 561.349 267.956 561.817 269.177 561.817C270.388 561.817 271.404 561.354 272.224 560.426C273.044 559.488 273.454 558.023 273.454 556.031C273.454 554.127 273.029 552.691 272.18 551.725C271.34 550.758 270.324 550.274 269.133 550.274C267.961 550.274 266.965 550.753 266.145 551.71C265.324 552.657 264.914 554.068 264.914 555.943ZM304.113 564V542.525H308.39L313.473 557.73C313.942 559.146 314.284 560.206 314.499 560.909C314.743 560.128 315.124 558.98 315.641 557.467L320.783 542.525H324.606V564H321.867V546.026L315.627 564H313.063L306.852 545.719V564H304.113ZM336.669 545.558V542.525H339.305V545.558H336.669ZM336.669 564V548.443H339.305V564H336.669ZM351.134 564V548.443H353.507V550.655C354.649 548.946 356.3 548.092 358.458 548.092C359.396 548.092 360.255 548.263 361.036 548.604C361.827 548.937 362.418 549.376 362.809 549.923C363.199 550.47 363.473 551.119 363.629 551.871C363.727 552.359 363.775 553.214 363.775 554.435V564H361.139V554.537C361.139 553.463 361.036 552.662 360.831 552.135C360.626 551.598 360.26 551.173 359.732 550.86C359.215 550.538 358.604 550.377 357.901 550.377C356.778 550.377 355.807 550.733 354.986 551.446C354.176 552.159 353.771 553.512 353.771 555.504V564H351.134ZM374.578 559.356L377.186 558.946C377.332 559.991 377.738 560.792 378.402 561.349C379.075 561.905 380.013 562.184 381.214 562.184C382.425 562.184 383.323 561.939 383.909 561.451C384.495 560.953 384.788 560.372 384.788 559.708C384.788 559.112 384.529 558.644 384.012 558.302C383.651 558.067 382.752 557.77 381.317 557.408C379.383 556.92 378.04 556.5 377.288 556.148C376.546 555.787 375.98 555.294 375.589 554.669C375.208 554.034 375.018 553.336 375.018 552.574C375.018 551.881 375.174 551.241 375.487 550.655C375.809 550.06 376.243 549.566 376.79 549.176C377.2 548.873 377.757 548.619 378.46 548.414C379.173 548.199 379.935 548.092 380.745 548.092C381.966 548.092 383.035 548.268 383.953 548.619C384.881 548.971 385.565 549.449 386.004 550.055C386.444 550.65 386.746 551.451 386.912 552.457L384.334 552.809C384.217 552.008 383.875 551.383 383.309 550.934C382.752 550.484 381.961 550.26 380.936 550.26C379.725 550.26 378.861 550.46 378.343 550.86C377.825 551.261 377.567 551.729 377.567 552.267C377.567 552.608 377.674 552.916 377.889 553.189C378.104 553.473 378.441 553.707 378.9 553.893C379.163 553.99 379.94 554.215 381.229 554.566C383.094 555.064 384.393 555.475 385.125 555.797C385.867 556.109 386.448 556.568 386.868 557.174C387.288 557.779 387.498 558.531 387.498 559.43C387.498 560.309 387.239 561.139 386.722 561.92C386.214 562.691 385.477 563.292 384.51 563.722C383.543 564.142 382.449 564.352 381.229 564.352C379.207 564.352 377.664 563.932 376.6 563.092C375.545 562.252 374.871 561.007 374.578 559.356ZM404.19 561.642L404.571 563.971C403.829 564.127 403.164 564.205 402.579 564.205C401.621 564.205 400.879 564.054 400.352 563.751C399.825 563.448 399.454 563.053 399.239 562.564C399.024 562.066 398.916 561.026 398.916 559.444V550.494H396.983V548.443H398.916V544.591L401.538 543.009V548.443H404.19V550.494H401.538V559.591C401.538 560.343 401.582 560.826 401.67 561.041C401.768 561.256 401.919 561.427 402.124 561.554C402.339 561.681 402.642 561.744 403.033 561.744C403.326 561.744 403.711 561.71 404.19 561.642ZM414.553 564V548.443H416.926V550.802C417.532 549.698 418.088 548.971 418.596 548.619C419.114 548.268 419.68 548.092 420.296 548.092C421.184 548.092 422.087 548.375 423.005 548.941L422.097 551.388C421.453 551.007 420.808 550.816 420.164 550.816C419.587 550.816 419.07 550.992 418.611 551.344C418.152 551.686 417.825 552.164 417.629 552.779C417.337 553.717 417.19 554.742 417.19 555.855V564H414.553ZM443.022 558.99L445.747 559.327C445.317 560.919 444.521 562.154 443.359 563.033C442.197 563.912 440.713 564.352 438.906 564.352C436.631 564.352 434.824 563.653 433.486 562.257C432.158 560.851 431.494 558.883 431.494 556.354C431.494 553.736 432.168 551.705 433.515 550.26C434.863 548.814 436.611 548.092 438.76 548.092C440.84 548.092 442.539 548.8 443.857 550.216C445.176 551.632 445.835 553.624 445.835 556.192C445.835 556.349 445.83 556.583 445.82 556.896H434.219C434.316 558.604 434.8 559.913 435.669 560.821C436.538 561.729 437.622 562.184 438.921 562.184C439.888 562.184 440.713 561.93 441.396 561.422C442.08 560.914 442.622 560.104 443.022 558.99ZM434.365 554.728H443.052C442.934 553.419 442.602 552.438 442.055 551.783C441.216 550.768 440.127 550.26 438.789 550.26C437.578 550.26 436.557 550.665 435.727 551.476C434.907 552.286 434.453 553.37 434.365 554.728ZM456.813 564V542.525H459.45V564H456.813ZM470.297 559.356L472.904 558.946C473.051 559.991 473.456 560.792 474.12 561.349C474.794 561.905 475.732 562.184 476.933 562.184C478.144 562.184 479.042 561.939 479.628 561.451C480.214 560.953 480.507 560.372 480.507 559.708C480.507 559.112 480.248 558.644 479.731 558.302C479.369 558.067 478.471 557.77 477.035 557.408C475.102 556.92 473.759 556.5 473.007 556.148C472.265 555.787 471.698 555.294 471.308 554.669C470.927 554.034 470.737 553.336 470.737 552.574C470.737 551.881 470.893 551.241 471.205 550.655C471.528 550.06 471.962 549.566 472.509 549.176C472.919 548.873 473.476 548.619 474.179 548.414C474.892 548.199 475.654 548.092 476.464 548.092C477.685 548.092 478.754 548.268 479.672 548.619C480.6 548.971 481.283 549.449 481.723 550.055C482.162 550.65 482.465 551.451 482.631 552.457L480.053 552.809C479.936 552.008 479.594 551.383 479.028 550.934C478.471 550.484 477.68 550.26 476.654 550.26C475.444 550.26 474.579 550.46 474.062 550.86C473.544 551.261 473.285 551.729 473.285 552.267C473.285 552.608 473.393 552.916 473.608 553.189C473.822 553.473 474.159 553.707 474.618 553.893C474.882 553.99 475.658 554.215 476.947 554.566C478.813 555.064 480.112 555.475 480.844 555.797C481.586 556.109 482.167 556.568 482.587 557.174C483.007 557.779 483.217 558.531 483.217 559.43C483.217 560.309 482.958 561.139 482.441 561.92C481.933 562.691 481.195 563.292 480.229 563.722C479.262 564.142 478.168 564.352 476.947 564.352C474.926 564.352 473.383 563.932 472.319 563.092C471.264 562.252 470.59 561.007 470.297 559.356ZM494.899 564V560.997H497.902V564H494.899ZM511.048 564V560.997H514.051V564H511.048ZM527.198 564V560.997H530.201V564H527.198Z" fill="#F29200"/>
<path d="M523.738 100.497L489.182 132.721C427.309 190.418 431.041 284.156 489.965 347.345C548.89 410.534 642.139 420.795 704.011 363.098L738.568 330.873L687.009 275.583L662.984 297.987C630.731 328.063 587.612 331.97 549.863 291.489C512.115 251.009 519.02 208.267 551.273 178.191L575.298 155.787L523.738 100.497Z" fill="#F29200"/>
</svg>
